<svg width="118" height="32" viewBox="0 0 118 32" fill="none" xmlns="http://www.w3.org/2000/svg">
<path d="M85.9371 30.9506L66.9206 1.07629L47.9043 30.9506H58.6586L60.1446 28.3716H73.6529L75.2267 30.9506H85.9371ZM64.1068 21.0339L66.9271 16.1158L69.7346 21.0107L64.1068 21.0339Z" fill="white"/>
<path d="M106.357 16.3791L116.442 1.02783H106.224L96.0371 16.3791L107.084 30.9509H117.404L106.357 16.3791Z" fill="#C42C34"/>
<path d="M25.4209 1.04846H31.1989V6.96877C30.4526 5.75778 29.5371 4.61711 28.452 3.54708C27.4977 2.57942 26.4873 1.74672 25.4209 1.04846Z" fill="#C42C34"/>
<path d="M93.891 16.3791L104.078 1.02783H93.7085L87.7853 11.1547V1.02783H78.5176V15.8177L87.7853 30.7398V24.0754L92.4641 30.9509H104.938L93.891 16.3791Z" fill="white"/>
<path d="M32.9057 10.3607H39.4747L27.584 30.9509H45.9293L51.8144 21.6831H43.6714L55.5619 1.04944H32.8967L32.9057 10.3607Z" fill="white"/>
<path d="M22.7321 16C22.7321 16.94 22.5719 17.807 22.2367 18.594C21.9016 19.3881 21.3988 20.1093 20.7213 20.7651C19.4099 22.0765 17.836 22.7323 16 22.7323C15.0601 22.7323 14.1931 22.5721 13.406 22.2442C12.6121 21.9164 11.8907 21.421 11.2351 20.7651C10.5792 20.1093 10.0838 19.3881 9.75594 18.594C9.42808 17.807 9.26774 16.94 9.26774 16C9.26774 14.164 9.92348 12.5903 11.2351 11.2788C11.8907 10.6231 12.6121 10.1275 13.406 9.79967C14.1931 9.4718 15.0601 9.31147 16 9.31147C17.836 9.31147 19.4099 9.96738 20.7213 11.2788C21.3988 11.9346 21.9016 12.6558 22.2367 13.4427C22.5719 14.2295 22.7321 15.0822 22.7321 16ZM32 16C32 11.5848 30.4262 7.82544 27.2787 4.72133C24.1747 1.57401 20.4154 0 16 0C13.7922 0 11.7451 0.393545 9.86535 1.18046C7.97822 1.96738 6.25143 3.14767 4.6776 4.72133C3.12554 6.27338 1.96 7.9856 1.17309 9.86535C0.393375 11.7451 0 13.7924 0 16C0 18.2078 0.393375 20.2551 1.17309 22.135C1.96 24.0219 3.12554 25.7486 4.6776 27.3224C6.25143 28.8743 7.97822 30.0402 9.86535 30.8271C11.7451 31.6066 13.7922 32 16 32C18.2076 32 20.2551 31.6066 22.1347 30.8271C24.0144 30.0402 25.7266 28.8743 27.2787 27.3224C28.8525 25.7486 30.0326 24.0219 30.8197 22.135C31.6065 20.2551 32 18.2078 32 16Z" fill="white"/>
</svg>
